# xmcd
#
# Track frame offsets:
#	150
#	16627
#	33255
#	50934
#	68600
#	84414
#	102013
#	118886
#	138248
#	153978
#
# Disc length: 2319 seconds
# Revision: 2
# Processed by: cddbd v1.5.2PL0 Copyright (c) Steve Scherf et al.
# Submitted via: dBpowerAMP V12.0
#
DISCID=76090d0a
DTITLE=NoelGourdin,Boston,MA - City Heart, Southern Soul
DYEAR=2014
DGENRE=Soul
TTITLE0=Spotlight Lovin'
TTITLE1=Foxxxy
TTITLE2=Heaven Knows
TTITLE3=Photography
TTITLE4=Patience
TTITLE5=Come Over
TTITLE6=Don't You Wanna
TTITLE7=No Worries
TTITLE8=Can't Wait
TTITLE9=I Want You (Regardless)
EXTD=
EXTT0=
EXTT1=
EXTT2=
EXTT3=
EXTT4=
EXTT5=
EXTT6=
EXTT7=
EXTT8=
EXTT9=
PLAYORDER=
